<?xml version="1.0" encoding="UTF-8" standalone="no"?>
<!-- Svg Vector Icons : http://www.onlinewebfonts.com/icon -->

<svg
   version="1.1"
   x="0px"
   y="0px"
   viewBox="0 0 1000 1000"
   enable-background="new 0 0 1000 1000"
   xml:space="preserve"
   id="svg178"
   sodipodi:docname="logo.svg"
   inkscape:export-filename="/home/beetix/OperaMetrix/Clients/ISIS/heartrate/public/favicon.ico"
   inkscape:export-xdpi="3.072"
   inkscape:export-ydpi="3.072"
   inkscape:version="1.1.1 (3bf5ae0d25, 2021-09-20, custom)"
   xmlns:inkscape="http://www.inkscape.org/namespaces/inkscape"
   xmlns:sodipodi="http://sodipodi.sourceforge.net/DTD/sodipodi-0.dtd"
   xmlns="http://www.w3.org/2000/svg"
   xmlns:svg="http://www.w3.org/2000/svg"><defs
   id="defs182" /><sodipodi:namedview
   id="namedview180"
   pagecolor="#ffffff"
   bordercolor="#666666"
   borderopacity="1.0"
   inkscape:pageshadow="2"
   inkscape:pageopacity="0.0"
   inkscape:pagecheckerboard="0"
   showgrid="false"
   inkscape:zoom="0.822"
   inkscape:cx="262.16545"
   inkscape:cy="500"
   inkscape:window-width="1920"
   inkscape:window-height="1011"
   inkscape:window-x="0"
   inkscape:window-y="32"
   inkscape:window-maximized="1"
   inkscape:current-layer="svg178" />
<metadata
   id="metadata168"> Svg Vector Icons : http://www.onlinewebfonts.com/icon </metadata>
<g
   id="g176"
   style="fill:#aa0000"><g
     transform="translate(0.000000,511.000000) scale(0.100000,-0.100000)"
     id="g174"
     style="fill:#aa0000"><path
       d="M3226.6,3884.2c-490.5-63.2-906.3-272.1-1278-640c-304.6-300.8-482.9-590.1-611.2-986.8c-270.2-831.6-93.9-1764.7,454.1-2400.8c51.7-61.3,118.8-122.6,149.5-138c160.9-84.3,343,24.9,343,205c0,72.8-24.9,115-172.4,289.3c-199.3,235.7-354.5,592.1-402.4,931.2c-36.4,243.3-15.3,661,44.1,864.1c101.6,352.6,233.8,595.9,454.1,829.7c352.6,375.6,731.9,559.5,1201.4,582.5c530.7,26.8,986.8-157.1,1362.3-548c310.4-323.8,496.3-743.4,542.2-1224.4c24.9-266.3,42.2-321.9,120.7-369.8c107.3-65.1,268.3-32.6,321.9,65.1c11.5,23,32.6,145.6,46,274c30.7,312.3,86.2,513.5,208.9,764.5c490.5,1004,1665.1,1350.8,2556.1,756.9c360.2-241.4,640-618.9,774.1-1044.3c147.5-465.6,111.1-1057.7-88.1-1490.7c-134.1-287.4-228-396.6-960-1101.7C7673.8-1093.7,5989.5-2707.1,5681-3000.2l-120.7-113l-99.6,93.9c-55.6,51.7-590.1,559.5-1188,1132.4C3138.4-802.5,3132.7-798.7,3013.9-837c-74.7-23-153.3-105.4-166.7-172.4c-24.9-139.9-19.2-149.4,649.6-791.3c2077-1990.8,1977.4-1902.7,2121.1-1872c59.4,13.4,390.9,325.7,2393.2,2249.5c511.6,492.4,1009.8,969.5,1107.5,1063.4C9517,17.6,9758.4,454.5,9865.8,989c46,231.9,46,737.7-2,961.9c-289.3,1389.2-1569.2,2230.3-2841.5,1868.2c-212.7-61.3-551.8-228-720.4-356.4c-266.3-201.2-526.9-503.9-664.9-770.3c-36.4-70.9-72.8-128.4-78.5-128.4c-7.7,0-24.9,26.8-38.3,61.3c-93.9,229.9-440.7,640-707,837.3C4358.9,3801.9,3776.5,3957.1,3226.6,3884.2z"
       id="path170"
       style="fill:#aa0000" /><path
       d="M3782.2,1318.6c-26.8-24.9-82.4-170.5-164.8-425.4C3299.4-105,3203.6-405.8,3203.6-415.4c0-5.7-676.4-9.6-1504.1-9.6h-1506l-46-47.9c-63.2-61.3-63.2-149.4,0-210.8l46-47.9h1588.4c1486.9,0,1592.3,1.9,1630.6,34.5c28.7,23,97.7,214.6,245.3,680.2c113,354.5,210.8,636.1,218.4,622.7c7.7-13.4,143.7-503.9,302.7-1088.3c314.2-1147.7,314.2-1149.6,440.7-1149.6c116.9,0,126.5,23,297,693.6c88.1,344.9,164.8,638,168.6,651.5c5.7,13.4,38.3-51.7,72.8-143.7c34.5-93.9,80.5-180.1,103.5-195.4c32.6-23,143.7-28.7,626.5-28.7c565.2,0,588.2,1.9,638.1,40.2c38.3,30.7,49.8,55.6,49.8,115c0,137.9-7.7,139.9-595.9,151.4l-519.3,9.6L5326.6,2.3c-120.7,310.4-139.9,344.9-193.5,367.9c-32.6,13.4-78.6,17.3-105.4,11.5c-99.6-26.8-109.2-57.5-331.5-919.7c-61.3-233.8-84.3-302.8-95.8-274c-9.6,23-141.8,500.1-295.1,1061.5c-239.5,873.7-285.5,1027-327.7,1065.3C3918.3,1366.5,3837.8,1368.4,3782.2,1318.6z"
       id="path172"
       style="fill:#aa0000" /></g></g>
</svg>
